<?xml version="1.0" encoding="utf-8"?>
<!-- Generator: Adobe Illustrator 19.1.0, SVG Export Plug-In . SVG Version: 6.00 Build 0)  -->
<svg version="1.1" id="Layer_1" xmlns="http://www.w3.org/2000/svg" xmlns:xlink="http://www.w3.org/1999/xlink" x="0px" y="0px"
	 viewBox="-106 441.6 381.7 199.3" style="enable-background:new -106 441.6 381.7 199.3;" xml:space="preserve">
<style type="text/css">
	.st0{fill:#FFD700;}
	.st1{fill:#FFFFFF;}
	.st2{fill:#CAC8C8;}
</style>
<path class="st0" d="M105.2,531.2L105.2,531.2c-13.6,0.5-25.1-10-25.6-23.5c-0.3-6.6,2-12.8,6.5-17.7c4.4-4.8,10.5-7.7,17.2-7.9
	c13.5-0.5,25,10,25.6,23.5C129.3,519.1,118.7,530.6,105.2,531.2 M238.9,504.9l0-22.4l29.2-0.1l0-17.1l-29.2,0l0-15.3l-19.4,0.1
	l0,15.2l-52.6,0c-14.8,0-24.7,8.4-26.2,21.7c-7.1-12.9-21-21.7-36.8-21.7c-11.2,0-21.7,4.4-29.5,12.4c-4.3,4.3-7.5,9.5-9.5,15
	l0-27.1l-17.1,0l0.1,41.4c0,16.1-8.3,26.1-23.7,26.2c-15.3,0-23.6-10.2-23.6-26.2l-0.1-41.4l-17.1,0l0,29.3
	c-4.3-18.1-18.2-29.4-39.5-29.4c-25.5,0-40.7,16.9-40.6,42l0.1,41.4l17.1,0l-0.1-41.4c0-16.1,8.3-26.1,23.7-26.2
	c15.3,0,23.6,10.2,23.6,26.2l0.1,41.4l17.1,0l0-29.3c4.3,18.1,18.2,29.4,39.5,29.4c21.5,0,35.6-12.1,39.5-30.9
	c4.8,17.8,21.1,30.9,40.4,30.9h0.1c9.2,0,17.7-3.1,24.6-8.2l0,7.8l17.1,0c0,0,0-41.2,0-41.5c0-0.1,0-0.2,0-0.3c4.6,5.7,11.9,9,21,9
	l24,0c8.1,0.4,8.1,5.8,8.1,7.8v0.1c0,5.2-3.2,7.9-9.4,7.9l-24.9,0l0,17.3l24.9,0c16.1,0,26.4-9.9,26.4-25.2c0-15-10.6-25-26.2-25
	l-23,0c-9.4,0-9.4-6-9.4-7.9c0-5.2,3.2-7.9,9.4-7.9l52.6-0.1l0.1,22.4c0.1,25.4,13.4,42.1,44.2,43.4l3.3-17.4
	C246.8,530.4,238.9,522.4,238.9,504.9"/>
<path class="st1" d="M228,635.1c0.4-0.1,0.8-0.3,1.1-0.6c0.3-0.3,0.7-0.7,0.9-1.1s0.6-1,0.8-1.7l5.2-13.5H233l-3.4,9.8l-3.7-9.8
	h-3.2l5.5,13.1c-0.3,0.6-0.5,1-0.8,1.2c-0.3,0.2-0.6,0.3-1.1,0.3c-0.3,0-0.6,0-0.9-0.1c-0.3-0.1-0.6-0.2-0.9-0.4l-1,2.2
	c0.5,0.2,0.9,0.4,1.4,0.6c0.5,0.1,1.1,0.2,1.7,0.2C227.1,635.3,227.6,635.3,228,635.1 M217.7,634.9c0.9-0.3,1.7-0.7,2.3-1.3
	c1.1-1.1,1.7-2.8,1.7-5v-10.5h-3v2c-0.5-0.6-1.1-1.1-1.9-1.6c-0.7-0.4-1.6-0.7-2.8-0.7c-0.8,0-1.5,0.1-2.2,0.4s-1.4,0.7-1.9,1.2
	c-0.6,0.5-1,1.2-1.3,1.9c-0.3,0.8-0.5,1.6-0.5,2.6v0.1c0,1,0.2,1.8,0.5,2.6c0.3,0.8,0.8,1.4,1.3,1.9c0.6,0.5,1.2,0.9,1.9,1.2
	c0.7,0.3,1.5,0.4,2.2,0.4c1.1,0,2-0.2,2.7-0.7c0.7-0.4,1.4-1,1.9-1.7v1c0,1.3-0.4,2.3-1.1,3c-0.7,0.7-1.7,1-3.1,1
	c-0.9,0-1.7-0.1-2.5-0.4c-0.8-0.2-1.5-0.6-2.2-1l-1.1,2.3c1.7,1,3.7,1.6,5.9,1.6C215.7,635.3,216.8,635.2,217.7,634.9 M213.3,627.4
	c-0.5-0.2-0.9-0.4-1.2-0.8c-0.3-0.3-0.6-0.7-0.8-1.1c-0.2-0.4-0.3-0.9-0.3-1.5v0c0-0.6,0.1-1,0.3-1.5c0.2-0.4,0.5-0.8,0.8-1.1
	c0.3-0.3,0.7-0.6,1.2-0.7c0.5-0.2,0.9-0.3,1.5-0.3c0.5,0,1,0.1,1.5,0.3c0.5,0.2,0.9,0.4,1.2,0.7c0.3,0.3,0.6,0.7,0.8,1.1
	c0.2,0.4,0.3,0.9,0.3,1.5v0.1c0,0.5-0.1,1-0.3,1.5c-0.2,0.4-0.5,0.8-0.8,1.1c-0.4,0.3-0.8,0.6-1.2,0.8c-0.5,0.2-1,0.3-1.5,0.3
	C214.3,627.7,213.8,627.6,213.3,627.4 M202.9,631c0.9-0.4,1.6-0.9,2.2-1.5c0.6-0.6,1.1-1.3,1.5-2.2c0.4-0.8,0.5-1.7,0.5-2.6v0
	c0-1-0.2-1.8-0.5-2.7c-0.3-0.8-0.8-1.5-1.5-2.2c-0.6-0.6-1.4-1.1-2.2-1.5c-0.9-0.4-1.8-0.5-2.8-0.5c-1,0-2,0.2-2.8,0.6
	c-0.9,0.4-1.6,0.9-2.2,1.5s-1.1,1.3-1.5,2.2s-0.5,1.7-0.5,2.7v0c0,0.9,0.2,1.8,0.5,2.6c0.4,0.8,0.8,1.5,1.5,2.2
	c0.6,0.6,1.4,1.1,2.2,1.5c0.9,0.4,1.8,0.5,2.8,0.5C201,631.6,202,631.4,202.9,631 M198.5,628.6c-0.5-0.2-0.9-0.5-1.3-0.9
	s-0.6-0.8-0.8-1.3c-0.2-0.5-0.3-1-0.3-1.6v0c0-0.6,0.1-1.1,0.3-1.6c0.2-0.5,0.4-1,0.8-1.3c0.3-0.4,0.8-0.7,1.3-0.9
	c0.5-0.2,1-0.3,1.6-0.3s1.1,0.1,1.6,0.3c0.5,0.2,0.9,0.5,1.3,0.9c0.4,0.4,0.6,0.8,0.8,1.3c0.2,0.5,0.3,1.1,0.3,1.6v0
	c0,0.6-0.1,1.1-0.3,1.6c-0.2,0.5-0.4,1-0.8,1.3c-0.3,0.4-0.8,0.7-1.3,0.9c-0.5,0.2-1,0.3-1.6,0.3C199.5,629,199,628.9,198.5,628.6
	 M188.3,631.3h3v-18.2h-3V631.3z M182.3,631c0.9-0.4,1.6-0.9,2.2-1.5c0.6-0.6,1.1-1.3,1.5-2.2c0.4-0.8,0.5-1.7,0.5-2.6v0
	c0-1-0.2-1.8-0.5-2.7c-0.3-0.8-0.8-1.5-1.5-2.2c-0.6-0.6-1.4-1.1-2.2-1.5c-0.9-0.4-1.8-0.5-2.8-0.5c-1,0-2,0.2-2.8,0.6
	c-0.9,0.4-1.6,0.9-2.2,1.5s-1.1,1.3-1.5,2.2s-0.5,1.7-0.5,2.7v0c0,0.9,0.2,1.8,0.5,2.6c0.4,0.8,0.8,1.5,1.5,2.2
	c0.6,0.6,1.4,1.1,2.2,1.5c0.9,0.4,1.8,0.5,2.8,0.5C180.5,631.6,181.5,631.4,182.3,631 M178,628.6c-0.5-0.2-0.9-0.5-1.3-0.9
	s-0.6-0.8-0.8-1.3c-0.2-0.5-0.3-1-0.3-1.6v0c0-0.6,0.1-1.1,0.3-1.6c0.2-0.5,0.4-1,0.8-1.3c0.3-0.4,0.8-0.7,1.3-0.9
	c0.5-0.2,1-0.3,1.6-0.3s1.1,0.1,1.6,0.3c0.5,0.2,0.9,0.5,1.3,0.9c0.4,0.4,0.6,0.8,0.8,1.3c0.2,0.5,0.3,1.1,0.3,1.6v0
	c0,0.6-0.1,1.1-0.3,1.6c-0.2,0.5-0.4,1-0.8,1.3c-0.3,0.4-0.8,0.7-1.3,0.9c-0.5,0.2-1,0.3-1.6,0.3C179,629,178.5,628.9,178,628.6
	 M159.3,631.3h3v-7.4c0-1,0.3-1.8,0.8-2.4c0.5-0.6,1.3-0.9,2.1-0.9c0.9,0,1.6,0.3,2.1,0.8c0.5,0.6,0.7,1.3,0.7,2.4v7.4h3v-8.4
	c0-1.5-0.4-2.8-1.2-3.7s-2-1.4-3.5-1.4c-0.5,0-1,0.1-1.4,0.2c-0.4,0.1-0.8,0.3-1.1,0.5c-0.3,0.2-0.6,0.5-0.9,0.7
	c-0.3,0.3-0.5,0.6-0.7,0.9v-2.1h-3L159.3,631.3L159.3,631.3z M145.3,631.3h3v-7.4c0-1,0.3-1.8,0.8-2.4c0.5-0.6,1.3-0.9,2.1-0.9
	c0.9,0,1.6,0.3,2.1,0.8c0.5,0.6,0.7,1.3,0.7,2.4v7.4h3v-8.4c0-1.5-0.4-2.8-1.2-3.7c-0.8-0.9-2-1.4-3.5-1.4c-0.5,0-1,0.1-1.4,0.2
	c-0.4,0.1-0.8,0.3-1.1,0.5c-0.3,0.2-0.6,0.5-0.9,0.7c-0.3,0.3-0.5,0.6-0.7,0.9v-7.1h-3L145.3,631.3L145.3,631.3z M141.9,630.9
	c0.8-0.5,1.6-1,2.2-1.8l-1.8-1.8c-0.5,0.5-1,0.9-1.5,1.2c-0.5,0.3-1.2,0.5-1.9,0.5c-0.6,0-1.1-0.1-1.6-0.3c-0.5-0.2-0.9-0.5-1.2-0.9
	c-0.4-0.4-0.6-0.8-0.8-1.3c-0.2-0.5-0.3-1.1-0.3-1.6v0c0-0.6,0.1-1.1,0.3-1.6c0.2-0.5,0.5-1,0.8-1.3s0.7-0.7,1.2-0.9s1-0.3,1.5-0.3
	c0.8,0,1.4,0.2,1.9,0.5c0.5,0.3,1,0.7,1.5,1.2l1.9-2c-0.6-0.7-1.3-1.2-2.2-1.6c-0.8-0.4-1.9-0.6-3.1-0.6c-1,0-1.9,0.2-2.7,0.6
	c-0.8,0.4-1.6,0.9-2.2,1.5c-0.6,0.6-1.1,1.4-1.4,2.2c-0.3,0.8-0.5,1.7-0.5,2.7v0c0,0.9,0.2,1.8,0.5,2.6c0.3,0.8,0.8,1.5,1.4,2.2
	c0.6,0.6,1.3,1.1,2.2,1.5c0.8,0.4,1.7,0.5,2.7,0.5C140,631.6,141,631.3,141.9,630.9 M128.2,630.9c0.9-0.4,1.6-1,2.3-1.8l-1.8-1.6
	c-0.5,0.5-1.1,0.9-1.6,1.2c-0.5,0.3-1.2,0.4-1.9,0.4c-1,0-1.8-0.3-2.5-0.9s-1.1-1.4-1.3-2.5h9.7c0-0.1,0-0.3,0-0.4
	c0-0.1,0-0.3,0-0.4c0-0.9-0.1-1.8-0.4-2.7s-0.7-1.6-1.2-2.3c-0.5-0.6-1.2-1.2-2-1.5s-1.7-0.6-2.8-0.6c-0.9,0-1.8,0.2-2.6,0.5
	c-0.8,0.4-1.5,0.8-2,1.5c-0.6,0.6-1,1.3-1.3,2.2c-0.3,0.8-0.5,1.7-0.5,2.7v0.1c0,1,0.2,1.9,0.5,2.8c0.4,0.8,0.8,1.6,1.4,2.2
	c0.6,0.6,1.3,1.1,2.1,1.4c0.8,0.3,1.7,0.5,2.7,0.5C126.3,631.6,127.3,631.4,128.2,630.9 M121.3,623.8c0.1-1,0.5-1.9,1.1-2.5
	c0.6-0.6,1.4-1,2.3-1c0.5,0,0.9,0.1,1.3,0.3c0.4,0.2,0.7,0.4,1,0.7s0.5,0.7,0.7,1.1c0.2,0.4,0.3,0.9,0.3,1.4L121.3,623.8
	L121.3,623.8z M109,631.3h3.1v-14.6h5.5v-2.8h-14.2v2.8h5.5L109,631.3L109,631.3z M91.3,630.8c0.7-0.5,1.3-1.1,1.8-1.7l0,2.2h3
	v-18.2h-3v7.1c-0.5-0.6-1.1-1.2-1.8-1.6s-1.6-0.7-2.7-0.7c-0.8,0-1.5,0.2-2.3,0.5c-0.7,0.3-1.4,0.7-2,1.3s-1,1.3-1.4,2.1
	c-0.3,0.8-0.5,1.8-0.5,2.9v0c0,1.1,0.2,2.1,0.5,2.9c0.4,0.8,0.8,1.6,1.4,2.1c0.6,0.6,1.2,1,1.9,1.3c0.7,0.3,1.5,0.4,2.3,0.4
	C89.7,631.6,90.6,631.3,91.3,630.8 M87.9,628.6c-0.5-0.2-0.9-0.5-1.2-0.8c-0.3-0.4-0.6-0.8-0.8-1.3c-0.2-0.5-0.3-1.1-0.3-1.7v0
	c0-0.7,0.1-1.2,0.3-1.8c0.2-0.5,0.5-1,0.8-1.3c0.3-0.4,0.8-0.6,1.2-0.8c0.5-0.2,0.9-0.3,1.5-0.3c0.5,0,1,0.1,1.4,0.3
	c0.5,0.2,0.9,0.5,1.2,0.8c0.3,0.4,0.6,0.8,0.8,1.3c0.2,0.5,0.3,1.1,0.3,1.7v0c0,0.6-0.1,1.2-0.3,1.7c-0.2,0.5-0.5,1-0.8,1.3
	s-0.8,0.7-1.2,0.9c-0.5,0.2-0.9,0.3-1.4,0.3C88.8,628.9,88.3,628.8,87.9,628.6 M69.2,631.3h3v-7.4c0-1,0.3-1.8,0.8-2.4
	c0.5-0.6,1.3-0.9,2.1-0.9c0.9,0,1.6,0.3,2.1,0.8c0.5,0.6,0.7,1.3,0.7,2.4v7.4h3v-8.4c0-1.5-0.4-2.8-1.2-3.7c-0.8-0.9-2-1.4-3.5-1.4
	c-0.5,0-1,0.1-1.4,0.2c-0.4,0.1-0.8,0.3-1.1,0.5c-0.3,0.2-0.6,0.5-0.9,0.7c-0.3,0.3-0.5,0.6-0.7,0.9v-2.1h-3L69.2,631.3L69.2,631.3z
	 M67.1,631.3v-7.8c0-1.8-0.5-3.1-1.4-4.1c-0.9-1-2.4-1.5-4.4-1.5c-1.1,0-2,0.1-2.8,0.3c-0.8,0.2-1.5,0.5-2.2,0.8l0.8,2.4
	c0.6-0.3,1.2-0.5,1.8-0.6c0.6-0.2,1.2-0.2,2-0.2c1,0,1.8,0.2,2.4,0.7c0.6,0.5,0.8,1.2,0.8,2.1v0.2c-0.5-0.2-1.1-0.3-1.6-0.4
	c-0.6-0.1-1.2-0.1-2-0.1c-0.8,0-1.5,0.1-2.1,0.3c-0.7,0.2-1.2,0.4-1.7,0.8c-0.5,0.4-0.8,0.8-1.1,1.3c-0.3,0.5-0.4,1.2-0.4,1.9v0.1
	c0,0.7,0.1,1.2,0.4,1.8c0.3,0.5,0.6,0.9,1,1.3c0.4,0.3,0.9,0.6,1.5,0.8s1.2,0.3,1.8,0.3c1,0,1.8-0.2,2.5-0.5
	c0.7-0.4,1.3-0.8,1.7-1.3v1.6L67.1,631.3L67.1,631.3z M64.2,626.5c0,0.4-0.1,0.8-0.3,1.1c-0.2,0.3-0.4,0.6-0.7,0.9
	c-0.3,0.2-0.7,0.4-1.1,0.6c-0.4,0.1-0.9,0.2-1.4,0.2c-0.7,0-1.3-0.2-1.8-0.5c-0.5-0.3-0.7-0.8-0.7-1.4v0c0-0.6,0.3-1.1,0.8-1.5
	s1.3-0.5,2.2-0.5c0.6,0,1.1,0,1.7,0.1c0.5,0.1,1,0.2,1.4,0.4L64.2,626.5L64.2,626.5z M45.7,630.9c0.9-0.4,1.6-1,2.3-1.8l-1.8-1.6
	c-0.5,0.5-1.1,0.9-1.6,1.2c-0.6,0.3-1.2,0.4-1.9,0.4c-1,0-1.8-0.3-2.5-0.9c-0.7-0.6-1.1-1.4-1.3-2.5h9.7c0-0.1,0-0.3,0-0.4
	c0-0.1,0-0.3,0-0.4c0-0.9-0.1-1.8-0.4-2.7c-0.3-0.9-0.7-1.6-1.2-2.3c-0.5-0.6-1.2-1.2-2-1.5s-1.7-0.6-2.8-0.6
	c-0.9,0-1.8,0.2-2.6,0.5c-0.8,0.4-1.5,0.8-2,1.5c-0.6,0.6-1,1.3-1.3,2.2c-0.3,0.8-0.5,1.7-0.5,2.7v0.1c0,1,0.2,1.9,0.5,2.8
	c0.3,0.8,0.8,1.6,1.4,2.2c0.6,0.6,1.3,1.1,2.1,1.4c0.8,0.3,1.7,0.5,2.7,0.5C43.8,631.6,44.8,631.4,45.7,630.9 M38.8,623.8
	c0.1-1,0.5-1.9,1.1-2.5c0.6-0.6,1.4-1,2.3-1c0.5,0,0.9,0.1,1.3,0.3c0.4,0.2,0.7,0.4,1,0.7c0.3,0.3,0.5,0.7,0.7,1.1
	c0.2,0.4,0.3,0.9,0.3,1.4L38.8,623.8L38.8,623.8z M33.1,630.9c0.8-0.5,1.6-1,2.2-1.8l-1.8-1.8c-0.5,0.5-1,0.9-1.5,1.2
	c-0.5,0.3-1.2,0.5-1.9,0.5c-0.6,0-1.1-0.1-1.6-0.3c-0.5-0.2-0.9-0.5-1.2-0.9c-0.4-0.4-0.6-0.8-0.8-1.3c-0.2-0.5-0.3-1.1-0.3-1.6v0
	c0-0.6,0.1-1.1,0.3-1.6c0.2-0.5,0.5-1,0.8-1.3s0.7-0.7,1.2-0.9s1-0.3,1.5-0.3c0.8,0,1.4,0.2,1.9,0.5c0.5,0.3,1,0.7,1.5,1.2l1.9-2
	c-0.6-0.7-1.3-1.2-2.2-1.6c-0.8-0.4-1.9-0.6-3.1-0.6c-1,0-1.9,0.2-2.7,0.6c-0.8,0.4-1.6,0.9-2.2,1.5c-0.6,0.6-1.1,1.4-1.4,2.2
	c-0.3,0.8-0.5,1.7-0.5,2.7v0c0,0.9,0.2,1.8,0.5,2.6c0.3,0.8,0.8,1.5,1.4,2.2c0.6,0.6,1.3,1.1,2.2,1.5c0.8,0.4,1.7,0.5,2.7,0.5
	C31.2,631.6,32.2,631.3,33.1,630.9 M9.8,631.3h3v-7.4c0-1,0.3-1.8,0.8-2.4c0.5-0.6,1.3-0.9,2.1-0.9c0.9,0,1.6,0.3,2.1,0.8
	c0.5,0.6,0.7,1.3,0.7,2.4v7.4h3v-8.4c0-1.5-0.4-2.8-1.2-3.7s-2-1.4-3.5-1.4c-0.5,0-1,0.1-1.4,0.2c-0.4,0.1-0.8,0.3-1.1,0.5
	c-0.3,0.2-0.6,0.5-0.9,0.7c-0.3,0.3-0.5,0.6-0.7,0.9v-2.1h-3V631.3z M5.4,630.9c0.9-0.4,1.6-1,2.3-1.8l-1.8-1.6
	c-0.5,0.5-1.1,0.9-1.6,1.2c-0.6,0.3-1.2,0.4-1.9,0.4c-1,0-1.8-0.3-2.5-0.9c-0.7-0.6-1.1-1.4-1.3-2.5h9.7c0-0.1,0-0.3,0-0.4
	c0-0.1,0-0.3,0-0.4c0-0.9-0.1-1.8-0.4-2.7c-0.3-0.9-0.7-1.6-1.2-2.3c-0.5-0.6-1.2-1.2-2-1.5S3,617.9,2,617.9c-0.9,0-1.8,0.2-2.6,0.5
	c-0.8,0.4-1.5,0.8-2,1.5c-0.6,0.6-1,1.3-1.3,2.2c-0.3,0.8-0.5,1.7-0.5,2.7v0.1c0,1,0.2,1.9,0.5,2.8c0.3,0.8,0.8,1.6,1.4,2.2
	c0.6,0.6,1.3,1.1,2.1,1.4c0.8,0.3,1.7,0.5,2.7,0.5C3.5,631.6,4.6,631.4,5.4,630.9 M-1.5,623.8c0.1-1,0.5-1.9,1.1-2.5
	c0.6-0.6,1.4-1,2.3-1c0.5,0,0.9,0.1,1.3,0.3c0.4,0.2,0.7,0.4,1,0.7c0.3,0.3,0.5,0.7,0.7,1.1c0.2,0.4,0.3,0.9,0.3,1.4L-1.5,623.8
	L-1.5,623.8z M-9.3,616.1h3.3v-2.9h-3.3V616.1z M-9.2,631.3h3v-13.1h-3V631.3z M-12.8,630.9c0.8-0.5,1.6-1,2.2-1.8l-1.8-1.8
	c-0.5,0.5-1,0.9-1.5,1.2c-0.5,0.3-1.2,0.5-1.9,0.5c-0.6,0-1.1-0.1-1.6-0.3s-0.9-0.5-1.2-0.9c-0.4-0.4-0.6-0.8-0.8-1.3
	c-0.2-0.5-0.3-1.1-0.3-1.6v0c0-0.6,0.1-1.1,0.3-1.6c0.2-0.5,0.5-1,0.8-1.3c0.3-0.4,0.7-0.7,1.2-0.9s1-0.3,1.5-0.3
	c0.8,0,1.4,0.2,1.9,0.5c0.5,0.3,1,0.7,1.5,1.2l1.9-2c-0.6-0.7-1.3-1.2-2.2-1.6c-0.8-0.4-1.9-0.6-3.1-0.6c-1,0-1.9,0.2-2.7,0.6
	c-0.8,0.4-1.6,0.9-2.2,1.5c-0.6,0.6-1.1,1.4-1.4,2.2c-0.3,0.8-0.5,1.7-0.5,2.7v0c0,0.9,0.2,1.8,0.5,2.6c0.3,0.8,0.8,1.5,1.4,2.2
	c0.6,0.6,1.3,1.1,2.2,1.5c0.8,0.4,1.7,0.5,2.7,0.5C-14.7,631.6-13.7,631.3-12.8,630.9 M-27.6,631.2c0.8-0.2,1.4-0.6,2-1
	c0.5-0.4,1-1,1.3-1.6c0.3-0.6,0.5-1.4,0.5-2.2v0c0-0.7-0.1-1.3-0.4-1.9c-0.2-0.5-0.6-1-1.1-1.4c-0.5-0.4-1.1-0.8-1.8-1
	c-0.7-0.3-1.5-0.5-2.4-0.8c-0.8-0.2-1.5-0.4-2.1-0.6c-0.5-0.2-1-0.4-1.3-0.6s-0.5-0.4-0.6-0.7c-0.1-0.3-0.2-0.6-0.2-0.9v0
	c0-0.6,0.2-1.1,0.7-1.5c0.5-0.4,1.2-0.6,2.1-0.6c0.8,0,1.6,0.2,2.4,0.5s1.6,0.8,2.4,1.3l1.6-2.3c-0.9-0.7-1.9-1.3-2.9-1.6
	c-1-0.4-2.2-0.6-3.5-0.6c-0.9,0-1.7,0.1-2.4,0.4c-0.7,0.3-1.4,0.6-1.9,1c-0.5,0.4-0.9,1-1.2,1.6c-0.3,0.6-0.4,1.3-0.4,2.1v0
	c0,0.8,0.1,1.5,0.4,2c0.3,0.6,0.6,1,1.1,1.4s1.1,0.7,1.8,1c0.7,0.3,1.6,0.5,2.5,0.7c0.8,0.2,1.5,0.4,2,0.5s0.9,0.4,1.2,0.6
	c0.3,0.2,0.5,0.4,0.6,0.7c0.1,0.2,0.2,0.5,0.2,0.8v0c0,0.7-0.3,1.2-0.8,1.6c-0.6,0.4-1.3,0.6-2.3,0.6c-1.1,0-2.1-0.2-2.9-0.6
	c-0.9-0.4-1.7-1-2.6-1.7l-1.8,2.2c1.1,0.9,2.2,1.6,3.4,2.1c1.2,0.5,2.5,0.7,3.9,0.7C-29.2,631.5-28.3,631.4-27.6,631.2 M-49.8,631.3
	h3v-10.6h3.4v-2.5h-3.5v-0.7c0-1.3,0.6-2,1.7-2c0.3,0,0.6,0,0.9,0.1c0.3,0.1,0.6,0.1,0.9,0.2v-2.5c-0.3-0.1-0.7-0.2-1.1-0.2
	c-0.4-0.1-0.8-0.1-1.4-0.1c-1.3,0-2.3,0.3-3,1c-0.7,0.7-1.1,1.8-1.1,3.3v0.9h-1.7v2.5h1.7C-49.8,620.7-49.8,631.3-49.8,631.3z
	 M-56.2,631c0.9-0.4,1.6-0.9,2.2-1.5c0.6-0.6,1.1-1.3,1.5-2.2c0.4-0.8,0.5-1.7,0.5-2.6v0c0-1-0.2-1.8-0.5-2.7
	c-0.3-0.8-0.8-1.5-1.5-2.2c-0.6-0.6-1.4-1.1-2.2-1.5c-0.9-0.4-1.8-0.5-2.8-0.5c-1,0-2,0.2-2.8,0.6c-0.9,0.4-1.6,0.9-2.2,1.5
	s-1.1,1.3-1.5,2.2c-0.4,0.8-0.5,1.7-0.5,2.7v0c0,0.9,0.2,1.8,0.5,2.6c0.4,0.8,0.8,1.5,1.5,2.2c0.6,0.6,1.4,1.1,2.2,1.5
	c0.9,0.4,1.8,0.5,2.8,0.5C-58,631.6-57.1,631.4-56.2,631 M-60.6,628.6c-0.5-0.2-0.9-0.5-1.3-0.9c-0.4-0.4-0.6-0.8-0.8-1.3
	c-0.2-0.5-0.3-1-0.3-1.6v0c0-0.6,0.1-1.1,0.3-1.6c0.2-0.5,0.4-1,0.8-1.3c0.3-0.4,0.8-0.7,1.3-0.9c0.5-0.2,1-0.3,1.6-0.3
	s1.1,0.1,1.6,0.3c0.5,0.2,0.9,0.5,1.3,0.9c0.4,0.4,0.6,0.8,0.8,1.3c0.2,0.5,0.3,1.1,0.3,1.6v0c0,0.6-0.1,1.1-0.3,1.6
	c-0.2,0.5-0.4,1-0.8,1.3c-0.3,0.4-0.8,0.7-1.3,0.9c-0.5,0.2-1,0.3-1.6,0.3C-59.6,629-60.1,628.9-60.6,628.6"/>
<path class="st1" d="M259.9,605.3c0.4-0.1,0.8-0.3,1.1-0.6c0.3-0.3,0.7-0.7,0.9-1.1c0.3-0.5,0.6-1,0.8-1.7l5.2-13.5h-3.1l-3.4,9.8
	l-3.7-9.8h-3.2l5.5,13.1c-0.2,0.6-0.5,1-0.8,1.2c-0.3,0.2-0.6,0.3-1.1,0.3c-0.3,0-0.6,0-0.9-0.1c-0.3-0.1-0.6-0.2-0.9-0.4l-1,2.2
	c0.5,0.2,0.9,0.4,1.4,0.6c0.5,0.1,1,0.2,1.7,0.2C259,605.5,259.5,605.4,259.9,605.3 M233.6,601.4h3V594c0-1,0.3-1.8,0.8-2.4
	c0.5-0.6,1.2-0.9,2-0.9c0.8,0,1.5,0.3,2,0.8c0.5,0.5,0.7,1.3,0.7,2.4v7.5h3V594c0-1.1,0.3-1.9,0.8-2.4c0.5-0.6,1.2-0.8,2-0.8
	c0.8,0,1.5,0.3,2,0.8c0.5,0.5,0.7,1.3,0.7,2.4v7.4h3V593c0-1.6-0.4-2.8-1.2-3.7c-0.8-0.9-2-1.3-3.4-1.3c-1,0-1.9,0.2-2.6,0.6
	c-0.7,0.4-1.4,1-1.9,1.7c-0.3-0.7-0.9-1.3-1.5-1.7c-0.7-0.4-1.5-0.6-2.4-0.6c-0.5,0-1,0.1-1.4,0.2c-0.4,0.1-0.8,0.3-1.1,0.5
	c-0.3,0.2-0.6,0.5-0.9,0.7c-0.2,0.3-0.5,0.6-0.7,0.9v-2h-3L233.6,601.4L233.6,601.4z M229.2,601c0.9-0.4,1.6-1,2.3-1.8l-1.8-1.6
	c-0.5,0.5-1.1,0.9-1.6,1.2c-0.6,0.3-1.2,0.4-1.9,0.4c-1,0-1.8-0.3-2.5-0.9s-1.1-1.4-1.3-2.5h9.7c0-0.2,0-0.3,0-0.4
	c0-0.1,0-0.3,0-0.4c0-0.9-0.1-1.8-0.4-2.7c-0.3-0.9-0.7-1.6-1.2-2.3c-0.5-0.6-1.2-1.2-2-1.5c-0.8-0.4-1.7-0.6-2.8-0.6
	c-0.9,0-1.8,0.2-2.6,0.5c-0.8,0.4-1.5,0.8-2,1.5c-0.6,0.6-1,1.3-1.3,2.2c-0.3,0.8-0.5,1.7-0.5,2.7v0.1c0,1,0.2,1.9,0.5,2.8
	c0.3,0.8,0.8,1.6,1.4,2.2c0.6,0.6,1.3,1.1,2.1,1.4c0.8,0.3,1.7,0.5,2.7,0.5C227.3,601.7,228.3,601.5,229.2,601 M222.3,593.9
	c0.1-1,0.5-1.9,1.1-2.5c0.6-0.6,1.4-1,2.3-1c0.5,0,0.9,0.1,1.3,0.3c0.4,0.2,0.7,0.4,1,0.7c0.3,0.3,0.5,0.7,0.7,1.1
	c0.2,0.4,0.3,0.9,0.3,1.4H222.3z M212.9,601c0.7-0.5,1.3-1.1,1.8-1.7l0,2.2h3v-18.2h-3v7.1c-0.5-0.6-1.1-1.2-1.8-1.6
	s-1.6-0.7-2.7-0.7c-0.8,0-1.5,0.2-2.3,0.5c-0.7,0.3-1.4,0.7-2,1.3c-0.6,0.6-1,1.3-1.4,2.1c-0.3,0.8-0.5,1.8-0.5,2.9v0.1
	c0,1.1,0.2,2.1,0.5,2.9c0.4,0.8,0.8,1.6,1.4,2.1c0.6,0.6,1.2,1,1.9,1.3c0.7,0.3,1.5,0.4,2.3,0.4C211.3,601.7,212.2,601.4,212.9,601
	 M209.5,598.8c-0.5-0.2-0.9-0.5-1.2-0.8c-0.3-0.4-0.6-0.8-0.8-1.3c-0.2-0.5-0.3-1.1-0.3-1.7v-0.1c0-0.6,0.1-1.2,0.3-1.8
	c0.2-0.5,0.5-1,0.8-1.3c0.3-0.4,0.8-0.6,1.2-0.8c0.5-0.2,0.9-0.3,1.5-0.3c0.5,0,1,0.1,1.4,0.3c0.5,0.2,0.9,0.5,1.2,0.8
	c0.3,0.4,0.6,0.8,0.8,1.3c0.2,0.5,0.3,1.1,0.3,1.7v0.1c0,0.6-0.1,1.2-0.3,1.7c-0.2,0.5-0.5,1-0.8,1.3c-0.3,0.4-0.8,0.7-1.2,0.9
	s-0.9,0.3-1.4,0.3C210.5,599.1,210,599,209.5,598.8 M202.7,601.4v-7.8c0-1.8-0.5-3.1-1.4-4.1c-0.9-1-2.4-1.5-4.4-1.5
	c-1.1,0-2,0.1-2.8,0.3c-0.8,0.2-1.5,0.5-2.2,0.8l0.8,2.4c0.6-0.2,1.2-0.4,1.8-0.6c0.6-0.2,1.2-0.2,2-0.2c1,0,1.8,0.2,2.4,0.7
	c0.6,0.5,0.8,1.2,0.8,2.1v0.2c-0.5-0.2-1-0.3-1.6-0.4c-0.6-0.1-1.2-0.1-2-0.1c-0.8,0-1.5,0.1-2.1,0.3c-0.7,0.2-1.2,0.4-1.7,0.8
	c-0.5,0.4-0.8,0.8-1.1,1.3c-0.3,0.5-0.4,1.2-0.4,1.9v0.1c0,0.7,0.1,1.2,0.4,1.8c0.3,0.5,0.6,0.9,1,1.3c0.4,0.3,0.9,0.6,1.5,0.8
	c0.6,0.2,1.2,0.3,1.8,0.3c1,0,1.8-0.2,2.5-0.5c0.7-0.4,1.3-0.8,1.7-1.3v1.6L202.7,601.4L202.7,601.4z M199.8,596.7
	c0,0.4-0.1,0.8-0.3,1.1c-0.2,0.3-0.4,0.6-0.7,0.9c-0.3,0.2-0.7,0.4-1.1,0.6c-0.4,0.1-0.9,0.2-1.4,0.2c-0.7,0-1.3-0.2-1.8-0.5
	c-0.5-0.3-0.7-0.8-0.7-1.4v0c0-0.6,0.3-1.1,0.8-1.5c0.5-0.4,1.3-0.6,2.2-0.6c0.6,0,1.1,0.1,1.7,0.2c0.5,0.1,1,0.2,1.4,0.4
	L199.8,596.7L199.8,596.7z M188.2,601c0.8-0.5,1.6-1,2.2-1.8l-1.8-1.8c-0.5,0.5-1,0.9-1.5,1.2c-0.5,0.3-1.2,0.5-1.9,0.5
	c-0.6,0-1.1-0.1-1.6-0.3c-0.5-0.2-0.9-0.5-1.2-0.9c-0.4-0.4-0.6-0.8-0.8-1.3c-0.2-0.5-0.3-1.1-0.3-1.6v-0.1c0-0.6,0.1-1.1,0.3-1.6
	c0.2-0.5,0.5-1,0.8-1.3c0.3-0.4,0.7-0.7,1.2-0.9c0.5-0.2,1-0.3,1.5-0.3c0.8,0,1.4,0.2,1.9,0.5c0.5,0.3,1,0.7,1.5,1.2l1.9-2
	c-0.6-0.7-1.3-1.2-2.2-1.6c-0.8-0.4-1.9-0.6-3.1-0.6c-1,0-1.9,0.2-2.7,0.5c-0.8,0.4-1.6,0.9-2.2,1.5c-0.6,0.6-1.1,1.4-1.4,2.2
	c-0.3,0.8-0.5,1.7-0.5,2.6v0c0,0.9,0.2,1.8,0.5,2.6c0.3,0.8,0.8,1.5,1.4,2.2c0.6,0.6,1.3,1.1,2.2,1.5c0.8,0.4,1.7,0.5,2.7,0.5
	C186.3,601.7,187.4,601.5,188.2,601 M159.6,601.4h3.1l1.8-4.2h8.3l1.8,4.2h3.2l-7.7-17.5h-2.8L159.6,601.4z M165.7,594.5l3-7l3,7
	H165.7z M145.5,605.3c0.4-0.1,0.8-0.3,1.1-0.6c0.3-0.3,0.7-0.7,0.9-1.1c0.3-0.5,0.6-1,0.8-1.7l5.2-13.5h-3.1l-3.4,9.8l-3.7-9.8h-3.2
	l5.5,13.1c-0.2,0.6-0.5,1-0.8,1.2c-0.3,0.2-0.6,0.3-1.1,0.3c-0.3,0-0.6,0-0.9-0.1s-0.6-0.2-0.9-0.4l-1,2.2c0.5,0.2,0.9,0.4,1.4,0.6
	c0.5,0.1,1.1,0.2,1.7,0.2C144.6,605.5,145.1,605.4,145.5,605.3 M138.6,601.5c0.4-0.1,0.8-0.3,1.2-0.5v-2.5c-0.6,0.3-1.2,0.4-1.9,0.4
	c-0.5,0-0.9-0.1-1.2-0.4c-0.3-0.3-0.4-0.7-0.4-1.3v-6.4h3.5v-2.6h-3.5v-3.6h-3v3.6h-1.7v2.6h1.7v6.9c0,0.7,0.1,1.3,0.3,1.8
	c0.2,0.5,0.5,0.9,0.8,1.2c0.3,0.3,0.8,0.5,1.2,0.6c0.5,0.1,1,0.2,1.5,0.2C137.7,601.6,138.2,601.6,138.6,601.5 M127.1,586.3h3.3
	v-2.9h-3.3V586.3z M127.2,601.4h3v-13.1h-3V601.4z M122.5,601.4c0.6-0.2,1.1-0.4,1.6-0.8c0.4-0.3,0.8-0.8,1-1.3
	c0.3-0.5,0.4-1.1,0.4-1.8v0c0-0.6-0.1-1.1-0.4-1.5c-0.2-0.4-0.6-0.8-1-1.1s-0.8-0.5-1.3-0.7c-0.5-0.2-1-0.4-1.4-0.5
	c-0.4-0.1-0.8-0.2-1.1-0.4c-0.4-0.1-0.7-0.3-0.9-0.4c-0.3-0.1-0.5-0.3-0.7-0.5c-0.2-0.2-0.2-0.4-0.2-0.6v0c0-0.4,0.2-0.7,0.5-0.9
	c0.3-0.2,0.8-0.4,1.4-0.4c0.6,0,1.1,0.1,1.8,0.3c0.7,0.2,1.3,0.5,1.9,0.9l1.2-2.1c-0.7-0.5-1.5-0.8-2.3-1.1
	c-0.8-0.3-1.7-0.4-2.5-0.4c-0.6,0-1.3,0.1-1.8,0.3c-0.6,0.2-1.1,0.4-1.5,0.8c-0.4,0.3-0.8,0.8-1,1.3c-0.2,0.5-0.4,1-0.4,1.7v0.1
	c0,0.6,0.1,1.2,0.4,1.6c0.2,0.4,0.6,0.8,1,1.1c0.4,0.3,0.8,0.5,1.3,0.7s1,0.3,1.5,0.5c0.4,0.1,0.8,0.2,1.1,0.4
	c0.4,0.1,0.7,0.2,0.9,0.4c0.3,0.1,0.5,0.3,0.6,0.5s0.2,0.4,0.2,0.6v0c0,0.4-0.2,0.8-0.5,1c-0.4,0.3-0.9,0.4-1.5,0.4
	c-0.7,0-1.4-0.1-2.1-0.4c-0.7-0.3-1.5-0.7-2.2-1.2l-1.3,2c0.8,0.7,1.7,1.1,2.7,1.5c1,0.3,1.9,0.5,2.9,0.5
	C121.3,601.7,121.9,601.6,122.5,601.4 M107.3,601.4h3v-5c0-0.9,0.1-1.6,0.3-2.3s0.5-1.2,0.9-1.6c0.4-0.4,0.9-0.8,1.4-1
	c0.5-0.2,1.2-0.3,1.8-0.3h0.2V588c-1.2-0.1-2.1,0.2-2.9,0.8c-0.8,0.6-1.4,1.4-1.8,2.4v-3h-3L107.3,601.4L107.3,601.4z M102.9,601
	c0.9-0.4,1.6-1,2.3-1.8l-1.8-1.6c-0.5,0.5-1.1,0.9-1.6,1.2c-0.5,0.3-1.2,0.4-1.9,0.4c-1,0-1.8-0.3-2.5-0.9s-1.1-1.4-1.3-2.5h9.7
	c0-0.2,0-0.3,0-0.4c0-0.1,0-0.3,0-0.4c0-0.9-0.1-1.8-0.4-2.7s-0.7-1.6-1.2-2.3c-0.5-0.6-1.2-1.2-2-1.5c-0.8-0.4-1.7-0.6-2.8-0.6
	c-0.9,0-1.8,0.2-2.6,0.5c-0.8,0.4-1.5,0.8-2,1.5c-0.6,0.6-1,1.3-1.3,2.2c-0.3,0.8-0.5,1.7-0.5,2.7v0.1c0,1,0.2,1.9,0.5,2.8
	c0.4,0.8,0.8,1.6,1.4,2.2c0.6,0.6,1.3,1.1,2.1,1.4c0.8,0.3,1.7,0.5,2.7,0.5C100.9,601.7,102,601.5,102.9,601 M96,593.9
	c0.1-1,0.5-1.9,1.1-2.5c0.6-0.6,1.4-1,2.3-1c0.5,0,0.9,0.1,1.3,0.3c0.4,0.2,0.7,0.4,1,0.7s0.5,0.7,0.7,1.1c0.2,0.4,0.3,0.9,0.3,1.4
	H96z M84.5,601.5h2.7l5.4-13.2h-3.2l-3.6,9.7l-3.5-9.7h-3.2L84.5,601.5z M74.8,586.3H78v-2.9h-3.3V586.3z M74.9,601.4h3v-13.1h-3
	V601.4z M60.8,601.4h3V594c0-1,0.3-1.8,0.8-2.4c0.5-0.6,1.3-0.9,2.1-0.9c0.9,0,1.6,0.3,2.1,0.8c0.5,0.6,0.7,1.3,0.7,2.4v7.4h3v-8.4
	c0-1.5-0.4-2.8-1.2-3.7c-0.8-0.9-2-1.4-3.5-1.4c-0.5,0-1,0.1-1.4,0.2c-0.4,0.1-0.8,0.3-1.1,0.5c-0.3,0.2-0.6,0.5-0.9,0.7
	c-0.3,0.3-0.5,0.6-0.7,0.9v-2.1h-3L60.8,601.4L60.8,601.4z M54,601.2c0.9-0.3,1.7-0.8,2.4-1.5c0.7-0.7,1.1-1.5,1.5-2.5
	c0.4-1,0.5-2.1,0.5-3.4V584h-3v10c0,1.6-0.4,2.8-1.2,3.6c-0.8,0.8-1.9,1.2-3.2,1.2c-1.4,0-2.5-0.4-3.3-1.3c-0.8-0.8-1.2-2.1-1.2-3.7
	V584h-3v10c0,1.3,0.2,2.4,0.5,3.3c0.3,1,0.8,1.8,1.5,2.4c0.6,0.6,1.4,1.1,2.3,1.5c0.9,0.3,1.9,0.5,3.1,0.5
	C52,601.7,53.1,601.5,54,601.2 M15.2,601.4h3V594c0-1,0.3-1.8,0.8-2.4c0.5-0.6,1.2-0.9,2-0.9c0.8,0,1.5,0.3,2,0.8s0.7,1.3,0.7,2.4
	v7.5h3V594c0-1.1,0.3-1.9,0.8-2.4c0.5-0.6,1.2-0.8,2-0.8c0.8,0,1.5,0.3,2,0.8s0.7,1.3,0.7,2.4v7.4h3V593c0-1.6-0.4-2.8-1.2-3.7
	c-0.8-0.9-1.9-1.3-3.4-1.3c-1,0-1.9,0.2-2.6,0.6c-0.7,0.4-1.4,1-1.9,1.7c-0.4-0.7-0.9-1.3-1.5-1.7c-0.7-0.4-1.5-0.6-2.4-0.6
	c-0.5,0-0.9,0.1-1.4,0.2c-0.4,0.1-0.8,0.3-1.1,0.5c-0.3,0.2-0.6,0.5-0.9,0.7c-0.3,0.3-0.5,0.6-0.7,0.9v-2h-3L15.2,601.4L15.2,601.4z
	 M13.1,601.4v-7.8c0-1.8-0.5-3.1-1.4-4.1c-0.9-1-2.4-1.5-4.4-1.5c-1.1,0-2,0.1-2.8,0.3c-0.8,0.2-1.5,0.5-2.2,0.8l0.8,2.4
	c0.6-0.2,1.2-0.4,1.8-0.6c0.6-0.2,1.2-0.2,2-0.2c1,0,1.8,0.2,2.4,0.7c0.6,0.5,0.8,1.2,0.8,2.1v0.2c-0.5-0.2-1.1-0.3-1.6-0.4
	c-0.6-0.1-1.2-0.1-2-0.1c-0.8,0-1.5,0.1-2.1,0.3c-0.7,0.2-1.2,0.4-1.7,0.8c-0.5,0.4-0.8,0.8-1.1,1.3c-0.3,0.5-0.4,1.2-0.4,1.9v0.1
	c0,0.7,0.1,1.2,0.4,1.8c0.3,0.5,0.6,0.9,1,1.3c0.4,0.3,0.9,0.6,1.5,0.8c0.6,0.2,1.2,0.3,1.8,0.3c1,0,1.8-0.2,2.5-0.5
	c0.7-0.4,1.3-0.8,1.7-1.3v1.6L13.1,601.4L13.1,601.4z M10.2,596.7c0,0.4-0.1,0.8-0.3,1.1c-0.2,0.3-0.4,0.6-0.7,0.9
	c-0.3,0.2-0.7,0.4-1.1,0.6c-0.4,0.1-0.9,0.2-1.4,0.2c-0.7,0-1.3-0.2-1.8-0.5c-0.5-0.3-0.7-0.8-0.7-1.4v0c0-0.6,0.3-1.1,0.8-1.5
	c0.5-0.4,1.3-0.6,2.2-0.6c0.6,0,1.1,0.1,1.7,0.2c0.5,0.1,1,0.2,1.4,0.4C10.2,595.9,10.2,596.7,10.2,596.7z M-11.9,601.4h3V594
	c0-1,0.3-1.8,0.8-2.4c0.5-0.6,1.3-0.9,2.1-0.9c0.9,0,1.6,0.3,2.1,0.8c0.5,0.6,0.7,1.3,0.7,2.4v7.4h3v-8.4c0-1.5-0.4-2.8-1.2-3.7
	c-0.8-0.9-2-1.4-3.5-1.4c-0.5,0-1,0.1-1.4,0.2c-0.4,0.1-0.8,0.3-1.1,0.5c-0.3,0.2-0.6,0.5-0.9,0.7c-0.3,0.3-0.5,0.6-0.7,0.9v-7.1h-3
	L-11.9,601.4L-11.9,601.4z M-18.1,605c0.9-0.3,1.7-0.7,2.3-1.3c1.1-1.1,1.7-2.8,1.7-5v-10.5h-3v2c-0.5-0.6-1.1-1.1-1.9-1.6
	c-0.7-0.4-1.6-0.7-2.8-0.7c-0.8,0-1.5,0.1-2.2,0.4c-0.7,0.3-1.4,0.7-1.9,1.2c-0.6,0.5-1,1.2-1.3,1.9c-0.3,0.8-0.5,1.6-0.5,2.6v0.1
	c0,1,0.2,1.8,0.5,2.6c0.3,0.8,0.8,1.4,1.3,1.9c0.6,0.5,1.2,0.9,1.9,1.2c0.7,0.3,1.5,0.4,2.2,0.4c1.1,0,2-0.2,2.7-0.7
	c0.7-0.4,1.4-1,1.9-1.7v1c0,1.3-0.4,2.3-1.1,3c-0.7,0.7-1.7,1-3.1,1c-0.9,0-1.7-0.1-2.5-0.4c-0.8-0.2-1.5-0.6-2.2-1l-1.1,2.3
	c1.7,1,3.7,1.6,5.9,1.6C-20,605.4-19,605.3-18.1,605 M-22.4,597.6c-0.5-0.2-0.8-0.4-1.2-0.7c-0.3-0.3-0.6-0.7-0.8-1.1
	c-0.2-0.4-0.3-0.9-0.3-1.5v0c0-0.6,0.1-1,0.3-1.5c0.2-0.4,0.5-0.8,0.8-1.1c0.3-0.3,0.7-0.6,1.2-0.7c0.5-0.2,0.9-0.3,1.5-0.3
	c0.5,0,1,0.1,1.5,0.3c0.5,0.2,0.9,0.4,1.2,0.7c0.3,0.3,0.6,0.7,0.8,1.1s0.3,0.9,0.3,1.5v0.1c0,0.5-0.1,1-0.3,1.5
	c-0.2,0.4-0.5,0.8-0.8,1.1c-0.4,0.3-0.8,0.6-1.2,0.7c-0.5,0.2-1,0.3-1.5,0.3C-21.5,597.8-22,597.7-22.4,597.6 M-41.1,601.4h3V594
	c0-1,0.3-1.8,0.8-2.4c0.5-0.6,1.3-0.9,2.1-0.9c0.9,0,1.6,0.3,2.1,0.8c0.5,0.6,0.7,1.3,0.7,2.4v7.4h3v-8.4c0-1.5-0.4-2.8-1.2-3.7
	c-0.8-0.9-2-1.4-3.5-1.4c-0.5,0-1,0.1-1.4,0.2c-0.4,0.1-0.8,0.3-1.1,0.5c-0.3,0.2-0.6,0.5-0.9,0.7c-0.3,0.3-0.5,0.6-0.7,0.9v-2.1h-3
	L-41.1,601.4L-41.1,601.4z M-46.6,586.3h3.3v-2.9h-3.3V586.3z M-46.5,601.4h3v-13.1h-3V601.4z M-49.5,601.5c0.4-0.1,0.8-0.3,1.2-0.5
	v-2.5c-0.6,0.3-1.2,0.4-1.9,0.4c-0.5,0-0.9-0.1-1.2-0.4c-0.3-0.3-0.4-0.7-0.4-1.3v-6.4h3.5v-2.6h-3.5v-3.6h-3v3.6h-1.7v2.6h1.7v6.9
	c0,0.7,0.1,1.3,0.3,1.8c0.2,0.5,0.4,0.9,0.8,1.2c0.3,0.3,0.8,0.5,1.2,0.6c0.5,0.1,1,0.2,1.5,0.2C-50.4,601.6-49.9,601.6-49.5,601.5
	 M-58.2,601.5c0.4-0.1,0.8-0.3,1.2-0.5v-2.5c-0.6,0.3-1.2,0.4-1.9,0.4c-0.5,0-0.9-0.1-1.2-0.4c-0.3-0.3-0.4-0.7-0.4-1.3v-6.4h3.5
	v-2.6h-3.5v-3.6h-3v3.6h-1.7v2.6h1.7v6.9c0,0.7,0.1,1.3,0.3,1.8c0.2,0.5,0.5,0.9,0.8,1.2c0.3,0.3,0.8,0.5,1.2,0.6
	c0.5,0.1,1,0.2,1.5,0.2C-59.1,601.6-58.6,601.6-58.2,601.5 M-70,601.2c0.9-0.4,1.6-0.9,2.2-1.5c0.6-0.6,1.1-1.3,1.5-2.2
	s0.5-1.7,0.5-2.6v-0.1c0-0.9-0.2-1.8-0.5-2.7c-0.4-0.8-0.8-1.5-1.5-2.2c-0.6-0.6-1.4-1.1-2.2-1.5c-0.9-0.4-1.8-0.5-2.8-0.5
	s-1.9,0.2-2.8,0.5c-0.9,0.4-1.6,0.9-2.2,1.5c-0.6,0.6-1.1,1.3-1.5,2.2c-0.4,0.8-0.5,1.7-0.5,2.7v0c0,0.9,0.2,1.8,0.5,2.6
	c0.3,0.8,0.8,1.5,1.5,2.2c0.6,0.6,1.4,1.1,2.2,1.5c0.9,0.4,1.8,0.5,2.8,0.5C-71.8,601.7-70.8,601.5-70,601.2 M-74.3,598.8
	c-0.5-0.2-0.9-0.5-1.3-0.9c-0.4-0.4-0.6-0.8-0.8-1.3c-0.2-0.5-0.3-1-0.3-1.6v-0.1c0-0.6,0.1-1.1,0.3-1.6c0.2-0.5,0.4-1,0.8-1.3
	c0.3-0.4,0.8-0.7,1.3-0.9c0.5-0.2,1-0.3,1.6-0.3c0.6,0,1.1,0.1,1.6,0.3c0.5,0.2,0.9,0.5,1.3,0.9c0.4,0.4,0.6,0.8,0.8,1.3
	c0.2,0.5,0.3,1.1,0.3,1.6v0c0,0.6-0.1,1.1-0.3,1.6c-0.2,0.5-0.4,1-0.8,1.3c-0.3,0.4-0.8,0.7-1.3,0.9c-0.5,0.2-1,0.3-1.6,0.3
	C-73.3,599.1-73.8,599-74.3,598.8 M-96.9,601.4h3V589l9.6,12.4h2.6V584h-3v12l-9.3-12h-2.8V601.4z"/>
<path class="st2" d="M271.4,567.2c0-2.6-2.1-4.8-4.8-4.8c-2.1,0-3.9,1.4-4.5,3.3H-88.6c-0.6-1.9-2.4-3.3-4.5-3.3
	c-2.6,0-4.8,2.1-4.8,4.8s2.1,4.7,4.8,4.7c2.1,0,3.9-1.4,4.5-3.3h350.7c0.6,1.9,2.4,3.3,4.5,3.3C269.2,571.9,271.4,569.8,271.4,567.2
	"/>
</svg>